<svg  xmlns="http://www.w3.org/2000/svg" viewBox="0 0 143.6 92.04"><defs><style>.cls-1{fill:#263575;}.cls-1,.cls-2,.cls-3{fill-rule:evenodd;}.cls-2,.cls-4{fill:#4099d4;}.cls-3{fill:#fff;}</style></defs><title>Untitled-4</title><path class="cls-1" d="M76.56,4.45c0,0.15,0,.29,0,0.43q0,19.65,0,39.31a35.54,35.54,0,0,1-.17,4.25A21.41,21.41,0,0,1,74,56.05,26.21,26.21,0,0,1,62.63,67.14a21.48,21.48,0,0,1-7.56,2.17,25.34,25.34,0,0,1-10.72-1.1,23.23,23.23,0,0,1-9.39-6,24.91,24.91,0,0,1-5.32-8.1A24,24,0,0,1,28,46.57a26,26,0,0,1,1.13-9.63A26,26,0,0,1,42.82,21.75a22.11,22.11,0,0,1,7.65-1.81A24.42,24.42,0,0,1,61,21.57a22.43,22.43,0,0,1,6.31,3.78,0.58,0.58,0,0,1,.22.39c0,2.89,0,5.78,0,8.67,0,0,0,.06,0,0.15l-0.19-.27a18.75,18.75,0,0,0-6.26-6A15.93,15.93,0,0,0,54,26.1a18.76,18.76,0,0,0-7.57.9A18.75,18.75,0,0,0,36.14,52.87,17.77,17.77,0,0,0,54,63.28a16.53,16.53,0,0,0,11.25-5.71,18.88,18.88,0,0,0,4-6.62,16.71,16.71,0,0,0,.94-4.8c0-.71,0-1.44,0-2.16V4.45h6.28Z" transform="translate(-27.94 -4.45)"/><path class="cls-1" d="M128.86,45.31a20.14,20.14,0,0,1-.51,4.51,25,25,0,0,1-20,19.21,27.09,27.09,0,0,1-4,.38,24.14,24.14,0,0,1-11.45-2.52,25,25,0,0,1-6.1-4.23,19.68,19.68,0,0,1-4.17-5.56,15.61,15.61,0,0,1-1.58-5.39,16.43,16.43,0,0,1,.68-6.41A25.85,25.85,0,0,1,85.26,38a19.59,19.59,0,0,1,3.27-3.66,0.29,0.29,0,0,1,.18-0.08l-0.22.35a17.94,17.94,0,0,0-2.77,7.64,17.55,17.55,0,0,0,3,12.47,19.67,19.67,0,0,0,12.5,8.26,24.25,24.25,0,0,0,18.43-4.17,25.28,25.28,0,0,0,6.7-7.71,27.76,27.76,0,0,0,2.49-5.62A0.34,0.34,0,0,1,128.86,45.31Z" transform="translate(-27.94 -4.45)"/><path class="cls-2" d="M80,43.47A19.69,19.69,0,0,1,80.53,39a25,25,0,0,1,20-19.22,26.89,26.89,0,0,1,4-.38,24.23,24.23,0,0,1,11.45,2.52,24.61,24.61,0,0,1,6.1,4.23,19.27,19.27,0,0,1,4.17,5.56,15.45,15.45,0,0,1,1.58,5.4,16.18,16.18,0,0,1-.68,6.41,25.4,25.4,0,0,1-3.5,7.34,19.1,19.1,0,0,1-3.27,3.66,0.28,0.28,0,0,1-.18.07l0.22-.35a17.9,17.9,0,0,0,2.77-7.64,17.54,17.54,0,0,0-3-12.46,19.63,19.63,0,0,0-12.5-8.26A24.15,24.15,0,0,0,89.25,30a25,25,0,0,0-6.69,7.69,27.94,27.94,0,0,0-2.49,5.62A0.87,0.87,0,0,1,80,43.47Z" transform="translate(-27.94 -4.45)"/><path class="cls-1" d="M147.27,96.49a3.2,3.2,0,0,1-.46-0.68c-0.58-1.34-1.13-2.69-1.69-4a0.49,0.49,0,0,0-.19-0.27c-0.25,1.62-.53,3.23-0.8,4.85H143c0.11-.6.22-1.18,0.34-1.76,0.29-1.53.59-3.07,0.89-4.59a2.1,2.1,0,0,1,.29-0.7,0.39,0.39,0,0,1,.68,0,3.16,3.16,0,0,1,.34.64c0.58,1.4,1.14,2.8,1.71,4.22a2.24,2.24,0,0,1,.15.32l0.15-.32,1.76-4.3a2.42,2.42,0,0,1,.3-0.56,0.39,0.39,0,0,1,.68,0,1.77,1.77,0,0,1,.27.6q0.6,3.08,1.19,6.17a1.44,1.44,0,0,1,0,.28h-1.07c-0.27-1.62-.54-3.25-0.82-5l-0.18.36c-0.56,1.38-1.12,2.75-1.7,4.12a2.71,2.71,0,0,1-.46.62h-0.29Z" transform="translate(-27.94 -4.45)"/><path class="cls-1" d="M159.24,96.49a4,4,0,0,1-.47-0.68c-0.56-1.34-1.12-2.69-1.68-4a0.54,0.54,0,0,0-.19-0.27c-0.26,1.62-.53,3.23-0.8,4.85H155c0.12-.6.22-1.18,0.34-1.76,0.29-1.53.59-3.07,0.9-4.59a1.94,1.94,0,0,1,.28-0.7,0.39,0.39,0,0,1,.69,0,3.19,3.19,0,0,1,.34.64l1.71,4.22c0,0.09.09,0.18,0.14,0.32,0.07-.14.12-0.23,0.15-0.32,0.59-1.43,1.17-2.87,1.75-4.3a2.75,2.75,0,0,1,.3-0.56,0.39,0.39,0,0,1,.68,0,1.63,1.63,0,0,1,.27.6c0.41,2.06.8,4.11,1.2,6.17,0,0.09,0,.17,0,0.28h-1.08c-0.26-1.62-.54-3.25-0.82-5-0.08.18-.13,0.26-0.17,0.36-0.56,1.38-1.12,2.75-1.71,4.12a3.2,3.2,0,0,1-.46.62h-0.3Z" transform="translate(-27.94 -4.45)"/><path class="cls-1" d="M138.84,89.26a9.45,9.45,0,0,1,1.14,0A2.58,2.58,0,0,1,142.15,91a4.45,4.45,0,0,1-.09,3.66,2.65,2.65,0,0,1-2.65,1.68c-0.46,0-.91,0-1.37,0a2.52,2.52,0,0,1-2-1,3.68,3.68,0,0,1-.79-1.9,4.49,4.49,0,0,1,.33-2.62,2.64,2.64,0,0,1,2.54-1.61h0.76v0Zm0,5.85h0.78a1.76,1.76,0,0,0,1.66-1.05,2.88,2.88,0,0,0,.19-1.92,1.89,1.89,0,0,0-2-1.65h-1.3a1.7,1.7,0,0,0-1.65,1,2.81,2.81,0,0,0-.09,2.45,1.75,1.75,0,0,0,1.75,1.14h0.7Z" transform="translate(-27.94 -4.45)"/><path class="cls-1" d="M134.32,95.14v1.17l-0.05,0c-1.13,0-2.26,0-3.38,0a2.36,2.36,0,0,1-2-1.28,4.35,4.35,0,0,1-.18-4.33,2.55,2.55,0,0,1,2.49-1.5h3.09V90.5h-3a1.87,1.87,0,0,0-2,1.54,2.86,2.86,0,0,0,.13,1.95,1.76,1.76,0,0,0,1.73,1.13h3Z" transform="translate(-27.94 -4.45)"/><path class="cls-1" d="M167.85,92.75l0.87-1.53,1-1.78a0.33,0.33,0,0,1,.32-0.21c0.34,0,.66,0,1,0-0.07.13-.12,0.22-0.17,0.31l-2.43,4.11a1.29,1.29,0,0,0-.21.73c0,0.64,0,1.28,0,1.95h-1c0-.34,0-0.67,0-1a3.44,3.44,0,0,0-.68-2.47c-0.73-1.07-1.35-2.19-2-3.29-0.06-.09-0.11-0.19-0.18-0.32,0.39,0,.76,0,1.11,0a0.42,0.42,0,0,1,.26.2c0.61,1,1.22,2,1.82,3Z" transform="translate(-27.94 -4.45)"/><path class="cls-1" d="M127,95.79a0.56,0.56,0,0,1-.49.63,0.64,0.64,0,0,1,0-1.25A0.54,0.54,0,0,1,127,95.79Z" transform="translate(-27.94 -4.45)"/><path class="cls-1" d="M153.91,95.79a0.51,0.51,0,1,1-.52-0.62A0.56,0.56,0,0,1,153.91,95.79Z" transform="translate(-27.94 -4.45)"/><path class="cls-3" d="M102.94,55.53a1,1,0,1,1,2,0A1,1,0,1,1,102.94,55.53Z" transform="translate(-27.94 -4.45)"/><path class="cls-2" d="M166.69,57.72a15.92,15.92,0,0,1-9.51,4,18.21,18.21,0,0,1-7.57-.91,18.46,18.46,0,0,1-10.33-9.5,18.32,18.32,0,0,1,17.85-26.77,16,16,0,0,1,7.06,2.15,20.68,20.68,0,0,0,4.68,1.89,2.85,2.85,0,0,1,1.79-1.35c0-1,0-2,0-3a0.64,0.64,0,0,0-.22-0.39c-0.5-.42-1-0.82-1.54-1.19a22.2,22.2,0,0,0-4.78-2.6,24.63,24.63,0,0,0-10.51-1.63A22.37,22.37,0,0,0,146,20.2a24.8,24.8,0,0,0-8.17,5.95,24.4,24.4,0,0,0-5.51,9.24A25.91,25.91,0,0,0,131.15,45a23.82,23.82,0,0,0,1.65,7.49,24.65,24.65,0,0,0,5.31,8.1,23.24,23.24,0,0,0,9.38,6,25.28,25.28,0,0,0,10.74,1.1,21.28,21.28,0,0,0,7.55-2.18,27,27,0,0,0,4.81-3.12c0-1.35,0-2.69-.06-4Z" transform="translate(-27.94 -4.45)"/><path class="cls-2" d="M170.44,23.8s3.33,4.71-1.56,4.78" transform="translate(-27.94 -4.45)"/><path class="cls-2" d="M166.69,57.72s6.28-1.54,3.9,4.74" transform="translate(-27.94 -4.45)"/><path class="cls-2" d="M100.75,41.38L105,45V43.83l2-2.44s3.09-.32,2.44,5.53h-2.11V52.3h-6.53V46.84H98.47S97.82,41.71,100.75,41.38Z" transform="translate(-27.94 -4.45)"/><path class="cls-1" d="M114.32,49.42v3.76a4.13,4.13,0,0,1-4.11,4.1H97.72a4.09,4.09,0,0,1-4.09-3.55A4.61,4.61,0,0,1,93.57,53V37.15A4.16,4.16,0,0,1,97.74,33h12.42a4.16,4.16,0,0,1,4.17,4.17c0,2.72,0,5.43,0,8.15a7.3,7.3,0,0,1-.83,3.51,4,4,0,0,1-2,1.87,7.47,7.47,0,0,1-5.25.24,4.27,4.27,0,0,1-2.52-2.18,2,2,0,0,0-.35-0.37,2.12,2.12,0,0,1-.35-0.46c-0.24-.57-0.43-1.16-0.7-1.72-0.44-.91-0.94-1.78-1.38-2.69a7.17,7.17,0,0,1-.74-2.64,0.92,0.92,0,0,1,.82-1.11,0.4,0.4,0,0,0,.4-0.4,2.69,2.69,0,0,1,1.91-2.45,2.5,2.5,0,0,1,3,1.77,3.42,3.42,0,0,1,.13.62,0.32,0.32,0,0,0,.28.34c0.9,0.16,1.11.71,0.92,1.66A13.67,13.67,0,0,1,106,45.2c-0.21.38-.46,0.76-0.64,1.16a11.33,11.33,0,0,0-.52,1.4,0.78,0.78,0,0,1-.51.71,3.9,3.9,0,0,0,2.29,1.83,6,6,0,0,0,4.48-.29,3.49,3.49,0,0,0,2-2.8,7.76,7.76,0,0,0,.07-1.09q0-3.7,0-7.4a3.4,3.4,0,0,0-3.54-3.53H98.22A3.39,3.39,0,0,0,94.76,38a3.26,3.26,0,0,0-.05.65V50.12a3.39,3.39,0,0,0,3.52,3.52h11.44a3.4,3.4,0,0,0,3.46-2.76,0.38,0.38,0,0,1,.08-0.18ZM101.4,40.27c-0.56.1-.67,0.28-0.57,0.82a16,16,0,0,0,1.91,4.47,0.81,0.81,0,0,0,.88.46,6.61,6.61,0,0,1,.66,0,0.88,0.88,0,0,0,.86-0.51c0.3-.58.62-1.16,0.92-1.74a8.85,8.85,0,0,0,1-2.7,1.89,1.89,0,0,0,0-.54,0.46,0.46,0,0,0-.49-0.33c-0.24,0-.18.17-0.23,0.28s-0.12.35-.2,0.51a2.41,2.41,0,0,1-4.23.39A8.34,8.34,0,0,1,101.4,40.27Zm1.55,15.26a1,1,0,1,0,2,0A1,1,0,1,0,102.94,55.53Z" transform="translate(-27.94 -4.45)"/><path class="cls-1" d="M90.59,82.91V80.85h4.57a2.13,2.13,0,0,0,2-1.08,2.77,2.77,0,0,0-.3-2.85,2.09,2.09,0,0,0-1.42-.57c-1.86,0-3.72,0-5.58,0-0.19,0-.21.09-0.21,0.24,0,0.77,0,1.53,0,2.3,0,2.36,0,4.72,0,7.09,0,0.27-.07.37-0.34,0.35s-0.74,0-1.1,0a0.2,0.2,0,0,1-.24-0.24c0-.34,0-0.67,0-1q0-5.24,0-10.49c0-.27.07-0.34,0.34-0.34,2.23,0,4.47,0,6.7,0a4,4,0,0,1,3.34,1.53A4.21,4.21,0,0,1,99.12,78a5,5,0,0,1-.36,2.57,3.74,3.74,0,0,1-2.08,2l-0.19.09,2.87,3.61h-2.2a0.48,0.48,0,0,1-.44-0.21L94.4,83.14a0.54,0.54,0,0,0-.47-0.24c-1,0-2,0-3,0H90.59Z" transform="translate(-27.94 -4.45)"/><path class="cls-1" d="M80.55,74.19a18.48,18.48,0,0,1,2.29.14,4.45,4.45,0,0,1,3.35,2.86,7.67,7.67,0,0,1,.52,3.41,6.64,6.64,0,0,1-1.58,4.24,3.93,3.93,0,0,1-2.87,1.45c-1.15,0-2.3.06-3.45,0a4.12,4.12,0,0,1-3.12-1.76,7.07,7.07,0,0,1-1.34-4.72,6.41,6.41,0,0,1,1-3.48,4.39,4.39,0,0,1,3.85-2.1h1.35v0Zm0,2.16h-1.3a2.76,2.76,0,0,0-2.43,1.26,4.9,4.9,0,0,0-.49,4.47,3.06,3.06,0,0,0,3.13,2.16c0.8,0,1.61,0,2.41,0a2.84,2.84,0,0,0,2.61-1.51,4.89,4.89,0,0,0,.19-4.44,2.84,2.84,0,0,0-2.39-1.89A13.85,13.85,0,0,0,80.53,76.34Z" transform="translate(-27.94 -4.45)"/><path class="cls-1" d="M45.54,74.19a20.77,20.77,0,0,1,2.32.14,4.38,4.38,0,0,1,3.2,2.59,8.11,8.11,0,0,1-.27,7,4.5,4.5,0,0,1-3.09,2.31,3.51,3.51,0,0,1-.38,0c-1.17,0-2.34.05-3.51,0a4.13,4.13,0,0,1-3.24-1.94,6.85,6.85,0,0,1-1.21-3.81A7.32,7.32,0,0,1,40,77a4.5,4.5,0,0,1,4.33-2.77h1.23S45.54,74.19,45.54,74.19Zm0,10h1.27a2.87,2.87,0,0,0,2.77-1.66,4.91,4.91,0,0,0,.2-4.08,3,3,0,0,0-3.12-2.16c-0.8,0-1.61,0-2.42,0a2.75,2.75,0,0,0-2.44,1.33,4.76,4.76,0,0,0-.38,4.56,2.93,2.93,0,0,0,3,2C44.78,84.19,45.15,84.21,45.51,84.21Z" transform="translate(-27.94 -4.45)"/><path class="cls-1" d="M28,86.28V74.23h5.3a4.44,4.44,0,0,1,4.2,2.57,7.29,7.29,0,0,1,.72,3.83,7,7,0,0,1-.94,3.31,4.47,4.47,0,0,1-3.08,2.3,3.53,3.53,0,0,1-.61.06H28Zm1.62-6c0,1.21,0,2.42,0,3.63,0,0.26.07,0.32,0.32,0.32,1.11,0,2.23,0,3.33,0A2.84,2.84,0,0,0,36,82.6a4.82,4.82,0,0,0,.16-4.27,3,3,0,0,0-3-2c-1,0-2.09,0-3.14,0-0.38,0-.39,0-0.39.37v3.56Z" transform="translate(-27.94 -4.45)"/><path class="cls-1" d="M63.11,84.21V86.3H62.77c-1.64,0-3.28,0-4.93,0a4.28,4.28,0,0,1-3.76-2,7.24,7.24,0,0,1-1.18-4.77,6.34,6.34,0,0,1,.92-3.1,4.39,4.39,0,0,1,3.86-2.2c1.7,0,3.41,0,5.1,0h0.33v2.1H62.79c-1.58,0-3.17,0-4.74,0a3.19,3.19,0,0,0-3.28,2.46,4.88,4.88,0,0,0,.31,3.78,2.9,2.9,0,0,0,2.75,1.66h5.29Z" transform="translate(-27.94 -4.45)"/><path class="cls-2" d="M136.8,84.19v2.09h-0.34c-1.64,0-3.29,0-4.93,0a4.3,4.3,0,0,1-3.77-2,7.25,7.25,0,0,1-1.18-4.77,6.38,6.38,0,0,1,.92-3.1,4.4,4.4,0,0,1,3.86-2.22h5.43v2.1h-0.31c-1.58,0-3.17,0-4.75,0a3.19,3.19,0,0,0-3.28,2.46,4.93,4.93,0,0,0,.3,3.79,2.94,2.94,0,0,0,2.75,1.66h5.3Z" transform="translate(-27.94 -4.45)"/><path class="cls-1" d="M68,86.26V76.33h-3.8V75c0-.73,0-0.73.72-0.73H73.1c0.24,0,.34.06,0.33,0.32,0,0.49,0,1,0,1.46a2.92,2.92,0,0,1,0,.33h-3.3c-0.53,0-.47-0.07-0.47.45q0,4.54,0,9.08v0.39H68Z" transform="translate(-27.94 -4.45)"/><path class="cls-2" d="M106.58,74.2a21.9,21.9,0,0,1,2.28.14,4.44,4.44,0,0,1,3.34,2.86,7.59,7.59,0,0,1,.53,3.41,6.62,6.62,0,0,1-1.58,4.24,3.92,3.92,0,0,1-2.87,1.44c-1.15,0-2.3.06-3.44,0a4.06,4.06,0,0,1-3.13-1.75,7.08,7.08,0,0,1-1.34-4.72,6.55,6.55,0,0,1,1-3.48,4.4,4.4,0,0,1,3.86-2.11h1.35v0Zm0,2.17v0h-1.29a2.76,2.76,0,0,0-2.43,1.26,4.88,4.88,0,0,0-.49,4.48,3,3,0,0,0,3.13,2.15c0.8,0,1.61,0,2.41,0a2.84,2.84,0,0,0,2.61-1.51,4.88,4.88,0,0,0,.19-4.45,2.84,2.84,0,0,0-2.38-1.89C107.73,76.32,107.13,76.37,106.56,76.37Z" transform="translate(-27.94 -4.45)"/><path class="cls-4" d="M124.59,84.5c0,0.7-.22,1-0.67,1a1.63,1.63,0,0,1-1.08-.64L116.38,78v7.47h-1.74V75.58a1.11,1.11,0,0,1,.2-0.65,0.62,0.62,0,0,1,.54-0.28,1.44,1.44,0,0,1,1,.55l6.46,6.93V74.65h1.75V84.5Z" transform="translate(-27.94 -4.45)"/><path class="cls-4" d="M152.26,86.17H150l-1.73-3.33h-4.89l1.09-2.06h2.72l-1.79-3.44-4.64,8.84H138.4L144,75.38a2.74,2.74,0,0,1,.59-0.77,1.3,1.3,0,0,1,.81-0.41,1.26,1.26,0,0,1,.82.39,2.82,2.82,0,0,1,.58.79Z" transform="translate(-27.94 -4.45)"/><path class="cls-4" d="M161.55,86.17h-8.88V74.24h1.8v9.85h7.08v2.08Z" transform="translate(-27.94 -4.45)"/><path class="cls-4" d="M171.32,86.17h-8.88V74.24h1.79v9.85h7.09v2.08Z" transform="translate(-27.94 -4.45)"/></svg>
